<?xml version="1.0" encoding="UTF-8" standalone="no"?><!-- Generator: Gravit.io --><svg xmlns="http://www.w3.org/2000/svg" xmlns:xlink="http://www.w3.org/1999/xlink" style="isolation:isolate" viewBox="0 0 470 67" width="470pt" height="67pt"><defs><clipPath id="_clipPath_2py0o8bbxuUDPZdQceab6skhOqpCRsKC"><rect width="470" height="67"/></clipPath></defs><g clip-path="url(#_clipPath_2py0o8bbxuUDPZdQceab6skhOqpCRsKC)"><rect width="470" height="67" style="fill:rgb(255,0,255)" fill-opacity="0"/><path d=" M 11.035 18.604 L 11.035 61.279 L 1.221 61.279 L 1.221 18.604 L 11.035 18.604 Z  M 6.104 0 L 6.104 0 L 6.104 0 Q 8.74 0 10.498 1.855 L 10.498 1.855 L 10.498 1.855 Q 12.207 3.613 12.207 6.152 L 12.207 6.152 L 12.207 6.152 Q 12.207 8.594 10.303 10.449 L 10.303 10.449 L 10.303 10.449 Q 8.496 12.207 6.006 12.207 L 6.006 12.207 L 6.006 12.207 Q 3.564 12.207 1.782 10.4 L 1.782 10.4 L 1.782 10.4 Q 0 8.594 0 6.104 L 0 6.104 L 0 6.104 Q 0 3.76 1.611 2.002 L 1.611 2.002 L 1.611 2.002 Q 3.369 0.098 6.104 0 Z  M 57.959 37.793 L 57.959 61.279 L 48.145 61.279 L 48.145 40.625 L 48.145 40.625 Q 48.145 33.984 46.582 31.201 L 46.582 31.201 L 46.582 31.201 Q 45.654 29.639 43.823 28.638 L 43.823 28.638 L 43.823 28.638 Q 41.992 27.637 39.99 27.637 L 39.99 27.637 L 39.99 27.637 Q 37.988 27.637 36.157 28.613 L 36.157 28.613 L 36.157 28.613 Q 34.326 29.59 33.35 31.152 L 33.35 31.152 L 33.35 31.152 Q 31.738 33.691 31.738 39.941 L 31.738 39.941 L 31.738 61.279 L 21.924 61.279 L 21.924 37.158 L 21.924 37.158 Q 21.924 29.443 25.879 24.561 L 25.879 24.561 L 25.879 24.561 Q 28.418 21.484 32.153 19.751 L 32.153 19.751 L 32.153 19.751 Q 35.889 18.018 39.99 18.018 L 39.99 18.018 L 39.99 18.018 Q 48.535 18.018 53.906 24.414 L 53.906 24.414 L 53.906 24.414 Q 56.201 27.1 57.08 30.029 L 57.08 30.029 L 57.08 30.029 Q 57.959 32.959 57.959 37.793 L 57.959 37.793 Z  M 89.014 51.807 L 89.014 61.279 L 89.014 61.279 Q 83.838 61.279 80.811 60.4 L 80.811 60.4 L 80.811 60.4 Q 77.783 59.521 75.146 57.178 L 75.146 57.178 L 75.146 57.178 Q 70.117 52.49 70.215 42.725 L 70.215 42.725 L 70.215 28.027 L 62.939 28.027 L 62.939 18.604 L 70.215 18.604 L 70.215 3.613 L 80.029 3.613 L 80.029 18.604 L 89.014 18.604 L 89.014 28.027 L 80.029 28.027 L 80.029 42.969 L 80.029 42.969 Q 80.029 47.998 81.934 49.878 L 81.934 49.878 L 81.934 49.878 Q 83.838 51.758 89.014 51.807 L 89.014 51.807 Z  M 125.342 47.461 L 135.791 47.461 L 135.791 47.461 Q 134.277 51.611 131.592 54.59 L 131.592 54.59 L 131.592 54.59 Q 128.516 58.008 124.121 59.961 L 124.121 59.961 L 124.121 59.961 Q 119.824 61.865 115.381 61.865 L 115.381 61.865 L 115.381 61.865 Q 106.982 61.865 100.586 55.957 L 100.586 55.957 L 100.586 55.957 Q 93.457 49.365 93.457 39.844 L 93.457 39.844 L 93.457 39.844 Q 93.457 35.156 95.459 30.835 L 95.459 30.835 L 95.459 30.835 Q 97.461 26.514 101.074 23.34 L 101.074 23.34 L 101.074 23.34 Q 107.129 18.018 115.332 18.018 L 115.332 18.018 L 115.332 18.018 Q 124.512 18.018 130.859 24.463 L 130.859 24.463 L 130.859 24.463 Q 133.447 27.1 134.985 30.347 L 134.985 30.347 L 134.985 30.347 Q 136.523 33.594 136.523 36.377 L 136.523 36.377 L 136.523 36.377 Q 136.523 40.234 133.74 42.383 L 133.74 42.383 L 133.74 42.383 Q 132.324 43.457 130.811 43.774 L 130.811 43.774 L 130.811 43.774 Q 129.297 44.092 125.684 44.092 L 125.684 44.092 L 103.906 44.092 L 103.906 44.092 Q 105.176 47.803 108.374 50.024 L 108.374 50.024 L 108.374 50.024 Q 111.572 52.246 115.527 52.246 L 115.527 52.246 L 115.527 52.246 Q 121.484 52.246 125.342 47.461 L 125.342 47.461 Z  M 104.053 35.4 L 126.855 35.4 L 126.855 35.4 Q 125.635 31.885 122.559 29.761 L 122.559 29.761 L 122.559 29.761 Q 119.482 27.637 115.576 27.637 L 115.576 27.637 L 115.576 27.637 Q 111.67 27.637 108.618 29.688 L 108.618 29.688 L 108.618 29.688 Q 105.566 31.738 104.053 35.4 L 104.053 35.4 Z  M 154.102 38.818 L 154.102 61.279 L 144.287 61.279 L 144.287 36.182 L 144.287 36.182 Q 144.287 27.148 149.072 22.51 L 149.072 22.51 L 149.072 22.51 Q 153.516 18.213 161.084 18.213 L 161.084 18.213 L 161.084 18.213 Q 161.768 18.213 163.428 18.311 L 163.428 18.311 L 163.428 27.832 L 163.428 27.832 Q 158.008 28.125 156.055 30.444 L 156.055 30.444 L 156.055 30.444 Q 154.102 32.764 154.102 38.818 L 154.102 38.818 Z  M 204.932 37.793 L 204.932 61.279 L 195.117 61.279 L 195.117 40.625 L 195.117 40.625 Q 195.117 33.984 193.555 31.201 L 193.555 31.201 L 193.555 31.201 Q 192.627 29.639 190.796 28.638 L 190.796 28.638 L 190.796 28.638 Q 188.965 27.637 186.963 27.637 L 186.963 27.637 L 186.963 27.637 Q 184.961 27.637 183.13 28.613 L 183.13 28.613 L 183.13 28.613 Q 181.299 29.59 180.322 31.152 L 180.322 31.152 L 180.322 31.152 Q 178.711 33.691 178.711 39.941 L 178.711 39.941 L 178.711 61.279 L 168.896 61.279 L 168.896 37.158 L 168.896 37.158 Q 168.896 29.443 172.852 24.561 L 172.852 24.561 L 172.852 24.561 Q 175.391 21.484 179.126 19.751 L 179.126 19.751 L 179.126 19.751 Q 182.861 18.018 186.963 18.018 L 186.963 18.018 L 186.963 18.018 Q 195.508 18.018 200.879 24.414 L 200.879 24.414 L 200.879 24.414 Q 203.174 27.1 204.053 30.029 L 204.053 30.029 L 204.053 30.029 Q 204.932 32.959 204.932 37.793 L 204.932 37.793 Z  M 244.727 47.461 L 255.176 47.461 L 255.176 47.461 Q 253.662 51.611 250.977 54.59 L 250.977 54.59 L 250.977 54.59 Q 247.9 58.008 243.506 59.961 L 243.506 59.961 L 243.506 59.961 Q 239.209 61.865 234.766 61.865 L 234.766 61.865 L 234.766 61.865 Q 226.367 61.865 219.971 55.957 L 219.971 55.957 L 219.971 55.957 Q 212.842 49.365 212.842 39.844 L 212.842 39.844 L 212.842 39.844 Q 212.842 35.156 214.844 30.835 L 214.844 30.835 L 214.844 30.835 Q 216.846 26.514 220.459 23.34 L 220.459 23.34 L 220.459 23.34 Q 226.514 18.018 234.717 18.018 L 234.717 18.018 L 234.717 18.018 Q 243.896 18.018 250.244 24.463 L 250.244 24.463 L 250.244 24.463 Q 252.832 27.1 254.37 30.347 L 254.37 30.347 L 254.37 30.347 Q 255.908 33.594 255.908 36.377 L 255.908 36.377 L 255.908 36.377 Q 255.908 40.234 253.125 42.383 L 253.125 42.383 L 253.125 42.383 Q 251.709 43.457 250.195 43.774 L 250.195 43.774 L 250.195 43.774 Q 248.682 44.092 245.068 44.092 L 245.068 44.092 L 223.291 44.092 L 223.291 44.092 Q 224.561 47.803 227.759 50.024 L 227.759 50.024 L 227.759 50.024 Q 230.957 52.246 234.912 52.246 L 234.912 52.246 L 234.912 52.246 Q 240.869 52.246 244.727 47.461 L 244.727 47.461 Z  M 223.438 35.4 L 246.24 35.4 L 246.24 35.4 Q 245.02 31.885 241.943 29.761 L 241.943 29.761 L 241.943 29.761 Q 238.867 27.637 234.961 27.637 L 234.961 27.637 L 234.961 27.637 Q 231.055 27.637 228.003 29.688 L 228.003 29.688 L 228.003 29.688 Q 224.951 31.738 223.438 35.4 L 223.438 35.4 Z  M 284.326 51.807 L 284.326 61.279 L 284.326 61.279 Q 279.15 61.279 276.123 60.4 L 276.123 60.4 L 276.123 60.4 Q 273.096 59.521 270.459 57.178 L 270.459 57.178 L 270.459 57.178 Q 265.43 52.49 265.527 42.725 L 265.527 42.725 L 265.527 28.027 L 258.252 28.027 L 258.252 18.604 L 265.527 18.604 L 265.527 3.613 L 275.342 3.613 L 275.342 18.604 L 284.326 18.604 L 284.326 28.027 L 275.342 28.027 L 275.342 42.969 L 275.342 42.969 Q 275.342 47.998 277.246 49.878 L 277.246 49.878 L 277.246 49.878 Q 279.15 51.758 284.326 51.807 L 284.326 51.807 Z  M 332.129 18.604 L 341.895 18.604 L 332.08 55.225 L 332.08 55.225 Q 331.104 58.936 329.736 60.449 L 329.736 60.449 L 329.736 60.449 Q 328.369 61.963 326.025 61.963 L 326.025 61.963 L 326.025 61.963 Q 321.045 61.963 319.629 54.541 L 319.629 54.541 L 315.527 32.959 L 310.84 56.055 L 310.84 56.055 Q 309.619 61.963 305.225 61.963 L 305.225 61.963 L 305.225 61.963 Q 303.125 61.963 301.904 60.742 L 301.904 60.742 L 301.904 60.742 Q 300.684 59.521 299.854 56.592 L 299.854 56.592 L 289.111 18.604 L 298.34 18.604 L 304.98 46.436 L 309.619 23.535 L 309.619 23.535 Q 310.84 17.48 315.674 17.48 L 315.674 17.48 L 315.674 17.48 Q 320.41 17.48 321.533 23.535 L 321.533 23.535 L 326.025 47.217 L 332.129 18.604 Z  M 389.307 43.994 L 389.307 61.279 L 379.492 61.279 L 379.492 57.373 L 379.492 57.373 Q 373.633 61.865 367.041 61.865 L 367.041 61.865 L 367.041 61.865 Q 359.473 61.865 353.418 56.836 L 353.418 56.836 L 353.418 56.836 Q 349.854 53.906 347.754 49.609 L 347.754 49.609 L 347.754 49.609 Q 345.459 44.971 345.459 39.99 L 345.459 39.99 L 345.459 39.99 Q 345.459 33.594 349.023 28.125 L 349.023 28.125 L 349.023 28.125 Q 352.393 22.949 357.959 20.264 L 357.959 20.264 L 357.959 20.264 Q 362.549 18.018 367.578 18.018 L 367.578 18.018 L 367.578 18.018 Q 375.049 18.018 381.152 22.656 L 381.152 22.656 L 381.152 22.656 Q 387.5 27.539 388.867 35.596 L 388.867 35.596 L 388.867 35.596 Q 389.307 38.184 389.307 43.994 L 389.307 43.994 Z  M 367.773 27.637 L 367.773 27.637 L 367.773 27.637 Q 362.354 27.637 358.643 31.494 L 358.643 31.494 L 358.643 31.494 Q 355.273 34.961 355.273 39.99 L 355.273 39.99 L 355.273 39.99 Q 355.273 45.459 359.229 49.072 L 359.229 49.072 L 359.229 49.072 Q 362.695 52.246 367.627 52.246 L 367.627 52.246 L 367.627 52.246 Q 373.193 52.246 376.807 48.291 L 376.807 48.291 L 376.807 48.291 Q 379.834 44.922 379.834 40.283 L 379.834 40.283 L 379.834 40.283 Q 379.834 34.229 375.586 30.518 L 375.586 30.518 L 375.586 30.518 Q 372.314 27.734 367.773 27.637 Z  M 408.594 38.818 L 408.594 61.279 L 398.779 61.279 L 398.779 36.182 L 398.779 36.182 Q 398.779 27.148 403.564 22.51 L 403.564 22.51 L 403.564 22.51 Q 408.008 18.213 415.576 18.213 L 415.576 18.213 L 415.576 18.213 Q 416.26 18.213 417.92 18.311 L 417.92 18.311 L 417.92 27.832 L 417.92 27.832 Q 412.5 28.125 410.547 30.444 L 410.547 30.444 L 410.547 30.444 Q 408.594 32.764 408.594 38.818 L 408.594 38.818 Z  M 452.637 47.461 L 463.086 47.461 L 463.086 47.461 Q 461.572 51.611 458.887 54.59 L 458.887 54.59 L 458.887 54.59 Q 455.811 58.008 451.416 59.961 L 451.416 59.961 L 451.416 59.961 Q 447.119 61.865 442.676 61.865 L 442.676 61.865 L 442.676 61.865 Q 434.277 61.865 427.881 55.957 L 427.881 55.957 L 427.881 55.957 Q 420.752 49.365 420.752 39.844 L 420.752 39.844 L 420.752 39.844 Q 420.752 35.156 422.754 30.835 L 422.754 30.835 L 422.754 30.835 Q 424.756 26.514 428.369 23.34 L 428.369 23.34 L 428.369 23.34 Q 434.424 18.018 442.627 18.018 L 442.627 18.018 L 442.627 18.018 Q 451.807 18.018 458.154 24.463 L 458.154 24.463 L 458.154 24.463 Q 460.742 27.1 462.28 30.347 L 462.28 30.347 L 462.28 30.347 Q 463.818 33.594 463.818 36.377 L 463.818 36.377 L 463.818 36.377 Q 463.818 40.234 461.035 42.383 L 461.035 42.383 L 461.035 42.383 Q 459.619 43.457 458.105 43.774 L 458.105 43.774 L 458.105 43.774 Q 456.592 44.092 452.979 44.092 L 452.979 44.092 L 431.201 44.092 L 431.201 44.092 Q 432.471 47.803 435.669 50.024 L 435.669 50.024 L 435.669 50.024 Q 438.867 52.246 442.822 52.246 L 442.822 52.246 L 442.822 52.246 Q 448.779 52.246 452.637 47.461 L 452.637 47.461 Z  M 431.348 35.4 L 454.15 35.4 L 454.15 35.4 Q 452.93 31.885 449.854 29.761 L 449.854 29.761 L 449.854 29.761 Q 446.777 27.637 442.871 27.637 L 442.871 27.637 L 442.871 27.637 Q 438.965 27.637 435.913 29.688 L 435.913 29.688 L 435.913 29.688 Q 432.861 31.738 431.348 35.4 L 431.348 35.4 Z " fill="rgb(255,255,255)"/></g></svg>